<svg width="113" height="14" viewBox="0 0 113 14" fill="none" xmlns="http://www.w3.org/2000/svg">
<path d="M1.44524 0.914062H3.42082L6.72453 10.0117L10.0199 0.914062H12.0038L7.51311 13H5.92766L1.44524 0.914062ZM0.449142 0.914062H2.38322L2.73186 9.27295V13H0.449142V0.914062ZM11.0575 0.914062H12.9999V13H10.7172V9.27295L11.0575 0.914062ZM25.9694 11.207V13H19.5446V11.207H25.9694ZM20.2419 0.914062V13H17.9591V0.914062H20.2419ZM25.131 5.90283V7.6543H19.5446V5.90283H25.131ZM25.9445 0.914062V2.71533H19.5446V0.914062H25.9445ZM35.5438 0.914062V13H33.2694V0.914062H35.5438ZM39.2958 0.914062V2.71533H29.559V0.914062H39.2958ZM45.882 0.914062V13H43.5993V0.914062H45.882ZM57.3075 9.8623C57.3075 9.62988 57.2715 9.42236 57.1996 9.23975C57.1332 9.0516 57.0087 8.88281 56.8261 8.7334C56.649 8.57845 56.3972 8.42904 56.0707 8.28516C55.7497 8.13574 55.3347 7.98079 54.8256 7.82031C54.2611 7.64323 53.7354 7.44401 53.2484 7.22266C52.7614 7.0013 52.3326 6.74398 51.9618 6.45068C51.5966 6.15739 51.3116 5.81982 51.1068 5.43799C50.9021 5.05062 50.7997 4.60238 50.7997 4.09326C50.7997 3.59521 50.9048 3.14144 51.1151 2.73193C51.3309 2.32243 51.6353 1.97103 52.0282 1.67773C52.4211 1.37891 52.8832 1.14925 53.4144 0.98877C53.9512 0.828288 54.5433 0.748047 55.1908 0.748047C56.0873 0.748047 56.862 0.911296 57.515 1.23779C58.1736 1.56429 58.6827 2.007 59.0424 2.56592C59.4021 3.12484 59.5819 3.75293 59.5819 4.4502H57.3075C57.3075 4.07389 57.2273 3.74186 57.0668 3.4541C56.9118 3.16634 56.6739 2.93945 56.3529 2.77344C56.0375 2.60742 55.639 2.52441 55.1576 2.52441C54.6928 2.52441 54.3054 2.59359 53.9955 2.73193C53.6911 2.87028 53.4615 3.05843 53.3065 3.29639C53.1571 3.53434 53.0824 3.79997 53.0824 4.09326C53.0824 4.31462 53.135 4.51383 53.2401 4.69092C53.3453 4.86247 53.503 5.02572 53.7133 5.18066C53.9236 5.33008 54.1836 5.47119 54.4935 5.604C54.809 5.73128 55.1742 5.85856 55.5892 5.98584C56.2533 6.18506 56.8344 6.40641 57.3324 6.6499C57.836 6.89339 58.2538 7.17008 58.5858 7.47998C58.9234 7.78988 59.1752 8.13851 59.3412 8.52588C59.5127 8.91325 59.5985 9.35319 59.5985 9.8457C59.5985 10.3659 59.4961 10.8307 59.2914 11.2402C59.0866 11.6497 58.7933 11.9984 58.4115 12.2861C58.0297 12.5739 57.5704 12.7925 57.0336 12.9419C56.5023 13.0913 55.9074 13.166 55.2489 13.166C54.6623 13.166 54.0813 13.0885 53.5057 12.9336C52.9358 12.7731 52.4183 12.5352 51.9535 12.2197C51.4887 11.8988 51.1179 11.4948 50.8412 11.0078C50.5645 10.5153 50.4262 9.93978 50.4262 9.28125H52.7172C52.7172 9.66309 52.778 9.98958 52.8998 10.2607C53.0271 10.5264 53.2041 10.745 53.431 10.9165C53.6635 11.0825 53.9346 11.2043 54.2445 11.2817C54.5544 11.3592 54.8892 11.3979 55.2489 11.3979C55.7138 11.3979 56.0956 11.3343 56.3944 11.207C56.6988 11.0742 56.9257 10.8916 57.0751 10.6592C57.23 10.4268 57.3075 10.1611 57.3075 9.8623ZM63.9186 11.9292C63.9186 11.5972 64.032 11.3177 64.2589 11.0908C64.4858 10.8639 64.7929 10.7505 65.1803 10.7505C65.5677 10.7505 65.8748 10.8639 66.1017 11.0908C66.3286 11.3177 66.442 11.5972 66.442 11.9292C66.442 12.2557 66.3286 12.5324 66.1017 12.7593C65.8748 12.9806 65.5677 13.0913 65.1803 13.0913C64.7929 13.0913 64.4858 12.9806 64.2589 12.7593C64.032 12.5324 63.9186 12.2557 63.9186 11.9292ZM74.431 10.6841L76.8382 0.914062H78.1415L78.2245 2.97266L75.6512 13H74.2733L74.431 10.6841ZM72.912 0.914062L74.8876 10.6509V13H73.3851L70.6459 0.914062H72.912ZM80.723 10.6094L82.6654 0.914062H84.9398L82.2005 13H80.6981L80.723 10.6094ZM78.764 0.914062L81.1712 10.7173L81.3124 13H79.9344L77.3695 2.96436L77.4691 0.914062H78.764ZM91.4513 0.914062V13H89.1686V0.914062H91.4513ZM98.8343 0.914062V13H96.5516V0.914062H98.8343ZM106.089 0.914062L101.242 6.80762L98.4691 9.771L98.0623 7.55469L99.9881 5.05615L103.292 0.914062H106.089ZM103.549 13L99.7889 7.33887L101.424 5.86133L106.264 13H103.549ZM112.393 0.914062V13H110.11V0.914062H112.393Z" fill="white"/>
</svg>
